<svg width="477" height="46" viewBox="0 0 477 46" fill="none" xmlns="http://www.w3.org/2000/svg">
<path d="M294.074 44.0959H297.563V24.3956H320.305V21.023H297.563V5.10292H321.609V1.73828H294.074V44.0959Z" fill="#1a2230"/>
<path d="M340.927 1.74023H337.43V44.0979H340.927V1.74023Z" fill="#1a2230"/>
<path d="M407.887 1.74023H404.398V44.0979H432.501V40.7252H407.887V1.74023Z" fill="#1a2230"/>
<path d="M359.48 44.0979H387.015V40.7252H362.977V24.3976H385.719V21.0249H362.977V5.10487H387.015V1.74023H359.48V44.0979Z" fill="#1a2230"/>
<path d="M455.976 1.73242H443.461V44.09H455.976C468.411 44.09 476.997 35.0111 476.997 22.7114C477.005 10.4117 468.419 1.73242 455.976 1.73242ZM455.976 40.7254H446.95V5.10505H455.976C466.283 5.10505 473.444 12.4817 473.444 22.7114C473.452 32.9492 466.283 40.7254 455.976 40.7254Z" fill="#1a2230"/>
<path d="M183.71 1.74023H146.973V8.48549H161.88V44.1378H168.802V8.48549H183.71V1.74023Z" fill="#1a2230"/>
<path d="M127.258 31.3906L105.452 1.74023H99.3789V44.1378H106.301V14.4795L128.098 44.1378H134.179V1.74023H127.258V31.3906Z" fill="#1a2230"/>
<path d="M196.504 44.1378H226.999V37.3846H203.426V26.0919H225.135V19.3386H203.426V8.48549H226.999V1.74023H196.504V44.1378Z" fill="#1a2230"/>
<path d="M52.8477 44.1378H83.3511V37.3846H59.7693V26.0919H81.4867V19.3386H59.7693V8.48549H83.3511V1.74023H52.8477V44.1378Z" fill="#1a2230"/>
<path d="M275.659 15.6863C275.659 7.34264 269.754 1.74023 260.976 1.74023H243.035V44.0979H249.957V29.4645H257.799L269.074 44.0979H277.22L265.561 28.961C271.722 27.3147 275.659 22.3836 275.659 15.6863ZM249.957 22.7113V8.4775H260.567C265.393 8.4775 268.625 11.2028 268.625 15.6783C268.625 20.1538 265.393 22.7113 260.567 22.7113H249.957Z" fill="#1a2230"/>
<path d="M34.0097 33.2834C31.249 36.2804 27.3441 38.2544 22.7189 38.2544C14.2449 38.2624 7.35517 31.3733 7.35517 22.9098C7.35517 14.4462 14.2449 7.56512 22.7189 7.56512C26.952 7.56512 30.9929 9.27541 33.9697 12.4882L39.0909 7.62106C34.7139 2.9777 28.9524 0.492188 22.7189 0.492188C10.3479 0.492187 0.273438 10.5541 0.273438 22.9178C0.273438 35.2814 10.3479 45.3433 22.7269 45.3433C28.9364 45.3433 34.8179 42.8179 39.1549 38.1505L34.0097 33.2834Z" fill="#1a2230"/>
</svg>
